<svg xmlns="http://www.w3.org/2000/svg" viewBox="0 0 251.19 232.19"><defs><style>.cls-1{fill:#3aa2db;}.cls-2{fill:#fff;}.cls-3{font-size:50px;fill:#152c46;font-family:RainBow6;}.cls-4{letter-spacing:-0.02em;}.cls-5{letter-spacing:0em;}</style></defs><g id="Слой_2" data-name="Слой 2"><g id="Слой_1-2" data-name="Слой 1"><path class="cls-1" d="M113.59,228.16A116.07,116.07,0,0,1,152.05,3a116.08,116.08,0,1,0-24.92,229.16A115.35,115.35,0,0,1,113.59,228.16Z"/><path class="cls-1" d="M165.53,7a116.43,116.43,0,0,0-11.62-3.55,116.07,116.07,0,0,0-29.38,224.69,114,114,0,0,0,11.67,3.56A116.09,116.09,0,0,0,165.53,7Z"/><rect class="cls-2" y="95.09" width="251.19" height="48"/><text class="cls-3" transform="translate(12.12 134.23)">IN SE<tspan class="cls-4" x="107.67" y="0">R</tspan><tspan class="cls-5" x="137.42" y="0">VICE</tspan></text></g></g></svg>